<?xml version="1.0" encoding="UTF-8" standalone="no"?> <svg xmlns="http://www.w3.org/2000/svg" viewBox="0 0 128 128"><title>Startup</title><g id="Startup"><path d="M103.35,115.5a49.5,49.5,0,1,0-79.5,0Z" style="fill:#2f87aa"/><rect x="108" y="114.5" width="4" height="2"/><rect x="13" y="114.5" width="5" height="2"/><path d="M75,83.5V99.61c1-.51,1-.9,2-1.17V83.5Z" style="fill:#7dc4c4"/><path d="M60.1,110.17a6.34,6.34,0,0,1,2.53-5,5.57,5.57,0,0,0-3.83.09h0l-.28-.92a5.64,5.64,0,0,0-11,1.25l-.07,1.07-1.06-.15a4.71,4.71,0,0,0-.53,0,4,4,0,0,0,0,8.07H61a5,5,0,0,0,.77-.09A6.28,6.28,0,0,1,60.1,110.17Z" style="fill:#fff"/><path d="M53,89.5v9h.12a8.22,8.22,0,0,1,1.88.16V89.5Z" style="fill:#7dc4c4"/><path d="M104.06,114.5H88.37a6.29,6.29,0,0,0,1.73-4.33,6.39,6.39,0,0,0-4.54-6.08,6.34,6.34,0,0,0-6.33-6,6.4,6.4,0,0,0-2.13.37,6.49,6.49,0,0,0-2,1.17s-.1,0-.12,0a7.56,7.56,0,0,0-3-.89V79.5h5v-4h1.58l2.86,13H86v-25H77V30.4c0-3-6-18.9-11.82-18.9H65c-5.8,0-12,15.86-12,18.9V63.5H44v25h4.76l2.86-13H53v4h5v20.64a8.45,8.45,0,0,0-3-1.48,7.27,7.27,0,0,0-1.93-.16h0a7.55,7.55,0,0,0-7.47,6,6,6,0,0,0-5.83,6A5.8,5.8,0,0,0,41,114c.13.17.26.36.41.52H22v2h82v-2ZM77,65.5h7v21h-1l-2.86-13H77Zm-24,8H50l-2.86,13H46v-21h7Zm2-43h8v-2H55.47c1.35-4.72,6.21-14.64,9.63-15.09,3.42.45,8.28,10.37,9.63,15.09H71v2h4v4H55Zm0,47v-4h3v-2H55v-35H75v35H70v2h5v4H68v-14H62v14Zm9,16v10.08a7.32,7.32,0,0,0-3.13-1.08H60v-23h2v10h6v-10h2V98.88a9.69,9.69,0,0,0-4,2.29V93.5Zm0-6v-22h2v22Zm-18.17,27a4,4,0,0,1,0-8.07,4.71,4.71,0,0,1,.53,0l1.06.15.07-1.07a5.64,5.64,0,0,1,11-1.25l.28.92h0a5.57,5.57,0,0,1,3.83-.09,6.3,6.3,0,0,0-.89,9.29,5,5,0,0,1-.77.09Zm37.94,0H66.43a4.33,4.33,0,0,1-.86-8.58l.68-.14.11-.68a5.21,5.21,0,0,1,8.22-3.36l.75.56.61-.71a4.29,4.29,0,0,1,3.29-1.52,4.34,4.34,0,0,1,4.34,4.33c0,.13,0,.27,0,.4l-.09.94.94.14a4.33,4.33,0,0,1-.63,8.62Z"/><path d="M70,98.88V79.5H68v10H62v-10H60v23h.87A7.32,7.32,0,0,1,64,103.58V93.5h2v7.67A9.69,9.69,0,0,1,70,98.88Z" style="fill:#ffe787"/><path d="M55,36.5v35h3v2H55v4h7v-14h6v14h7v-4H70v-2h5v-35Z" style="fill:#fff"/><circle cx="65.1" cy="49.55" r="5" style="fill:#7dc4c4"/><path d="M58.1,49.55a7,7,0,1,0,7-7A7,7,0,0,0,58.1,49.55Zm7-5a5,5,0,1,1-5,5A5,5,0,0,1,65.1,44.55Z"/><path d="M71,30.5v-2h3.73c-1.35-4.72-6.21-14.64-9.63-15.09-3.42.45-8.28,10.37-9.63,15.09H63v2H55v4H75v-4Z" style="fill:#2f87aa"/><path d="M75.1,114.5h8.67a4.33,4.33,0,0,0,.63-8.62l-.94-.14.09-.94c0-.13,0-.27,0-.4a4.34,4.34,0,0,0-4.34-4.33,4.29,4.29,0,0,0-3.29,1.52l-.61.71-.75-.56a5.21,5.21,0,0,0-8.22,3.36l-.11.68-.68.14a4.33,4.33,0,0,0,.86,8.58Z" style="fill:#fff"/><circle cx="26.77" cy="68.83" r="3" style="fill:#fff"/><path d="M31.77,68.83a5,5,0,1,0-5,5A5,5,0,0,0,31.77,68.83Zm-5,3a3,3,0,1,1,3-3A3,3,0,0,1,26.77,71.83Z"/><path d="M91.43,95.17a2,2,0,1,0,2,2A2,2,0,0,0,91.43,95.17Z" style="fill:#fff"/><path d="M87.43,97.17a4,4,0,1,0,4-4A4,4,0,0,0,87.43,97.17Zm4,2a2,2,0,1,1,2-2A2,2,0,0,1,91.43,99.17Z"/><polygon points="100 83.5 102 83.5 102 81.5 104 81.5 104 79.5 102 79.5 102 77.5 100 77.5 100 79.5 98 79.5 98 81.5 100 81.5 100 83.5"/><polygon points="41 55.5 41 53.5 43 53.5 43 51.5 41 51.5 41 49.5 39 49.5 39 51.5 37 51.5 37 53.5 39 53.5 39 55.5 41 55.5" style="fill:#fff"/><polygon points="88 55.5 90 55.5 90 53.5 92 53.5 92 51.5 90 51.5 90 49.5 88 49.5 88 51.5 86 51.5 86 53.5 88 53.5 88 55.5" style="fill:#ffefa6"/><polygon points="32 91.5 30 91.5 30 94.5 27 94.5 27 96.5 30 96.5 30 99.5 32 99.5 32 96.5 35 96.5 35 94.5 32 94.5 32 91.5" style="fill:#ffefa6"/><polygon points="29 29.5 31 29.5 31 26.5 34 26.5 34 24.5 31 24.5 31 21.5 29 21.5 29 24.5 26 24.5 26 26.5 29 26.5 29 29.5"/><polygon points="46 86.5 47.15 86.5 50.01 73.5 53 73.5 53 65.5 46 65.5 46 86.5" style="fill:#de856f"/><polygon points="77 73.5 80.19 73.5 83.05 86.5 84 86.5 84 65.5 77 65.5 77 73.5" style="fill:#de856f"/><rect x="64" y="65.5" width="2" height="22" style="fill:#de856f"/><polygon points="98 36.5 100 36.5 100 34.5 102 34.5 102 32.5 100 32.5 100 30.5 98 30.5 98 32.5 96 32.5 96 34.5 98 34.5 98 36.5" style="fill:#de856f"/><path d="M64.39,16.79a28.8,28.8,0,0,0-5.22,8.34l1.86.74a26.82,26.82,0,0,1,4.78-7.66Z" style="fill:#7dc4c4"/></g></svg>